<svg xmlns="http://www.w3.org/2000/svg" xmlns:xlink="http://www.w3.org/1999/xlink" width="422" height="243" viewBox="0 0 422 243">
  <defs>
    <style>
      .cls-1 {
        filter: url(#filter);
      }

      .cls-2 {
        fill: none;
      }

      .cls-2, .cls-3 {
        stroke: #22a7f0;
        stroke-width: 2px;
        fill-rule: evenodd;
      }

      .cls-3 {
        fill: #22a7f0;
        stroke-linejoin: round;
      }
    </style>
    <filter id="filter" filterUnits="userSpaceOnUse">
      <feFlood result="flood" flood-color="#28c8c6"/>
      <feComposite result="composite" operator="in" in2="SourceGraphic"/>
      <feBlend result="blend" in2="SourceGraphic"/>
    </filter>
  </defs>
  <g id="iPhone_6" data-name="iPhone 6" class="cls-1">
    <g id="iPhone">
      <path class="cls-2" d="M354.659,23H68.825A64.9,64.9,0,0,0,3.907,87.876V203.1a7.453,7.453,0,0,1,1.938,5.325V344.472A7.455,7.455,0,0,1,3.907,349.8V813.125A64.9,64.9,0,0,0,68.825,878h7.267a18.254,18.254,0,0,1,8.72-1.936A18.256,18.256,0,0,1,93.533,878h93.5a6.284,6.284,0,0,1,4.844-1.936h39.726A6.286,6.286,0,0,1,236.45,878H354.659a64.9,64.9,0,0,0,64.919-64.875V271.367a7.924,7.924,0,0,1-1.938-5.81V206.491c0-2.905.592-4.272,1.938-5.81V87.876A64.9,64.9,0,0,0,354.659,23h0Z" transform="translate(-0.5 -22)"/>
      <path class="cls-2" d="M354.174,31.715H69.311A56.664,56.664,0,0,0,12.627,88.359V812.641a56.664,56.664,0,0,0,56.683,56.645H354.174a56.664,56.664,0,0,0,56.683-56.645V88.359a56.664,56.664,0,0,0-56.683-56.644h0Z" transform="translate(-0.5 -22)"/>
      <path class="cls-2" d="M211.742,789.886a31.479,31.479,0,0,0-31.49,31.468v0a31.49,31.49,0,0,0,62.98,0v0a31.478,31.478,0,0,0-31.49-31.468h0Z" transform="translate(-0.5 -22)"/>
      <path class="cls-2" d="M211.742,794.727A26.636,26.636,0,0,0,185.1,821.354v0a26.646,26.646,0,0,0,53.291,0v0a26.636,26.636,0,0,0-26.646-26.627h0Z" transform="translate(-0.5 -22)"/>
      <path class="cls-2" d="M241.3,73.835h-59.1a4.359,4.359,0,0,0-4.36,4.357h0a4.359,4.359,0,0,0,4.36,4.357h59.1a4.359,4.359,0,0,0,4.36-4.357h0a4.359,4.359,0,0,0-4.36-4.357h0Z" transform="translate(-0.5 -22)"/>
      <path class="cls-2" d="M149.246,70.446a7.748,7.748,0,0,0-7.751,7.746h0a7.752,7.752,0,0,0,15.5,0h0a7.749,7.749,0,0,0-7.752-7.746h0Z" transform="translate(-0.5 -22)"/>
      <path class="cls-2" d="M211.742,46.239a5.327,5.327,0,0,0-5.329,5.325h0a5.329,5.329,0,0,0,10.658,0h0a5.327,5.327,0,0,0-5.329-5.325h0Z" transform="translate(-0.5 -22)"/>
      <path class="cls-2" d="M6.329,270.4H5.857a3.88,3.88,0,0,1-3.888-3.873V211.332a3.88,3.88,0,0,1,3.888-3.873H6.814" transform="translate(-0.5 -22)"/>
      <path class="cls-2" d="M6.814,345.441H5.857a3.881,3.881,0,0,1-3.888-3.873V286.375A3.881,3.881,0,0,1,5.857,282.5H6.329" transform="translate(-0.5 -22)"/>
      <path class="cls-2" d="M4.876,167.759H3.422a1.937,1.937,0,0,1-1.938-1.936V134.838A1.937,1.937,0,0,1,3.422,132.9H4.876" transform="translate(-0.5 -22)"/>
      <path class="cls-2" d="M417.155,205.039h0.473a3.881,3.881,0,0,1,3.888,3.873v54.224a3.881,3.881,0,0,1-3.888,3.873h-0.473" transform="translate(-0.5 -22)"/>
    </g>
    <path id="Screen" class="cls-3" d="M393.417,127.575v645.85H30.088l-0.02-645.85H393.417" transform="translate(-0.5 -22)"/>
  </g>
</svg>
