<svg xmlns="http://www.w3.org/2000/svg" width="21" height="21.062" viewBox="0 0 21 21.062">
  <defs>
    <style>
      .cls-1 {
        fill: #28c8c6;
        fill-rule: evenodd;
      }
    </style>
  </defs>
  <path class="cls-1" d="M458.5,634.158A10.537,10.537,0,1,1,469,623.621,10.518,10.518,0,0,1,458.5,634.158Zm0-19.1a8.561,8.561,0,1,0,8.531,8.561A8.546,8.546,0,0,0,458.5,615.06Zm3.685,10.21-2.953,3.293,0,0a0.972,0.972,0,0,1-1.458,0l0,0-2.953-3.293,0,0a0.982,0.982,0,1,1,1.458-1.316l0,0,1.237,1.379v-5.986a0.984,0.984,0,1,1,1.968,0v5.986l1.237-1.379,0,0a0.982,0.982,0,1,1,1.458,1.316Z" transform="translate(-448 -613.094)"/>
</svg>
