<svg xmlns="http://www.w3.org/2000/svg" width="50" height="40" viewBox="0 0 50 40">
  <defs>
    <style>
      .cls-1 {
        fill: #fff;
        fill-rule: evenodd;
      }
    </style>
  </defs>
  <path class="cls-1" d="M371.79,1826.81h0l-7.032,15.69h0a2.351,2.351,0,0,1-1.981,1.38h0l-20.249,1.35,1.17,3.36H365.75a4.705,4.705,0,1,1-4.687,4.7H339.188a4.688,4.688,0,1,1-4.688-4.7h4.236l-9.024-25.88h-5.368a2.355,2.355,0,0,1,0-4.71h7.031a2.334,2.334,0,0,1,2.2,1.58h0.009l1.365,3.91h34.7a2.345,2.345,0,0,1,2.344,2.35A2.378,2.378,0,0,1,371.79,1826.81Zm-35.2,1.39,4.333,12.42,20.14-1.34,4.966-11.08H336.592Z" transform="translate(-322 -1818)"/>
</svg>
