<svg xmlns="http://www.w3.org/2000/svg" width="68" height="68" viewBox="0 0 68 68">
  <defs>
    <style>
      .cls-1 {
        fill: #28c8c6;
        fill-rule: evenodd;
      }
    </style>
  </defs>
  <path class="cls-1" d="M239.768,85.707l17.591,40.7-31.044-18.042,9.8-22.662a2.1,2.1,0,0,1,1.82-.752A2.072,2.072,0,0,1,239.768,85.707Zm-2.678,29.93-18.569,10.774,7.463-17.23Zm0.9,26.363A34.018,34.018,0,0,1,204,107.993a33.992,33.992,0,0,1,58.036-24.029h0a33.973,33.973,0,0,1,0,48.072A32.9,32.9,0,0,1,237.992,142Zm0-64.388a30.407,30.407,0,0,0-30.381,30.381,30.382,30.382,0,0,0,51.872,21.49,29.04,29.04,0,0,0,8.906-21.49,29.022,29.022,0,0,0-8.906-21.476h0A29.033,29.033,0,0,0,237.992,77.612Z" transform="translate(-204 -74)"/>
</svg>
