<svg xmlns="http://www.w3.org/2000/svg" width="16" height="13" viewBox="0 0 16 13">
  <defs>
    <style>
      .cls-1 {
        fill: #fff;
        fill-rule: evenodd;
      }
    </style>
  </defs>
  <path class="cls-1" d="M1225,4587.54a6.612,6.612,0,0,1-1.89.52,3.325,3.325,0,0,0,1.45-1.82,6.616,6.616,0,0,1-2.09.8,3.283,3.283,0,0,0-5.68,2.24,3.081,3.081,0,0,0,.09.75,9.323,9.323,0,0,1-6.77-3.43,3.28,3.28,0,0,0-.44,1.65,3.428,3.428,0,0,0,1.64,2.73c-0.54-.02-1.31-0.16-1.31-0.41v0.04a3.132,3.132,0,0,0,2.45,3.22,3.691,3.691,0,0,1-.95.12,4.768,4.768,0,0,1-.67-0.06,3.274,3.274,0,0,0,3.05,2.28,6.611,6.611,0,0,1-4.09,1.4,6.851,6.851,0,0,1-.79-0.04,9.34,9.34,0,0,0,14.37-7.87c0-.14,0-0.28-0.01-0.42a6.794,6.794,0,0,0,1.64-1.7h0Z" transform="translate(-1209 -4586)"/>
</svg>
