<svg xmlns="http://www.w3.org/2000/svg" width="55" height="48" viewBox="0 0 55 48">
  <defs>
    <style>
      .cls-1 {
        fill: #fff;
        fill-rule: evenodd;
      }
    </style>
  </defs>
  <path class="cls-1" d="M1274.42,1857h-49.84a2.571,2.571,0,0,1-2.58-2.57v-42.86a2.571,2.571,0,0,1,2.58-2.57h49.84a2.571,2.571,0,0,1,2.58,2.57v42.86A2.571,2.571,0,0,1,1274.42,1857Zm-47.26-45.43a2.57,2.57,0,1,0,2.57,2.57A2.571,2.571,0,0,0,1227.16,1811.57Zm7.73,0a2.57,2.57,0,1,0,2.58,2.57A2.578,2.578,0,0,0,1234.89,1811.57Zm7.74,0a2.57,2.57,0,1,0,2.57,2.57A2.571,2.571,0,0,0,1242.63,1811.57Zm31.79,7.72h-49.84v35.14h49.84v-35.14Z" transform="translate(-1222 -1809)"/>
</svg>
